<?xml version="1.0" standalone="no"?><!-- Generator: Gravit.io --><svg xmlns="http://www.w3.org/2000/svg" xmlns:xlink="http://www.w3.org/1999/xlink" style="isolation:isolate" viewBox="62 6.53 33.698 27.841" width="33.698" height="27.841"><g style="isolation:isolate" id="logo"><path d=" M 78.096 34.371 Q 75.724 19.114 78.486 13.055 C 81.249 6.996 87.45 6.414 90.936 7.833 C 94.421 9.253 97.397 14.095 94.576 19.927 Q 91.754 25.758 78.096 34.371 Z " fill="rgb(255,255,255)"/><clipPath id="_clipPath_8HWcwTsieo5Z3pkZVwgry1SzfXJRYpfO"><path d=" M 78.096 34.371 Q 75.724 19.114 78.486 13.055 C 81.249 6.996 87.45 6.414 90.936 7.833 C 94.421 9.253 97.397 14.095 94.576 19.927 Q 91.754 25.758 78.096 34.371 Z " fill="rgb(255,255,255)"/></clipPath><g clip-path="url(#_clipPath_8HWcwTsieo5Z3pkZVwgry1SzfXJRYpfO)"><path d=" M 85.641 16.13 L 95.459 25.724 L 77 39.008 L 70.323 33.473 L 85.641 16.13 Z " fill="rgb(255,255,255)"/><path d=" M 85.641 16.13 L 93.103 24.248 L 98.209 16.13 L 94.674 8.012 L 85.641 16.13 Z " fill="rgb(255,255,255)"/><path d=" M 84.462 17.237 L 93.103 26.462 L 95.459 24.248 L 86.819 15.023 L 84.462 17.237 Z " fill="rgb(0,135,203)"/><path d=" M 93.103 7.274 L 68.359 29.414 L 70.323 31.259 L 95.459 8.75 L 93.103 7.274 Z " fill="rgb(0,135,203)"/></g><path d=" M 77.919 34.371 Q 81.613 19.348 79.387 13.097 C 77.162 6.846 71.032 5.788 67.435 6.935 C 63.837 8.081 60.449 12.678 62.753 18.708 Q 65.057 24.737 77.919 34.371 Z " fill="rgb(255,255,255)"/><clipPath id="_clipPath_jdh1vFcAebzVgS5T2cRdaKGmBiK6Mjci"><path d=" M 77.919 34.371 Q 81.613 19.348 79.387 13.097 C 77.162 6.846 71.032 5.788 67.435 6.935 C 63.837 8.081 60.449 12.678 62.753 18.708 Q 65.057 24.737 77.919 34.371 Z " fill="rgb(255,255,255)"/></clipPath><g clip-path="url(#_clipPath_jdh1vFcAebzVgS5T2cRdaKGmBiK6Mjci)"><path d=" M 66.713 14.694 C 66.713 12.861 68.297 11.373 70.248 11.373 C 72.199 11.373 73.783 12.861 73.783 14.694 C 73.783 16.527 72.199 18.015 70.248 18.015 C 68.297 18.015 66.713 16.527 66.713 14.694 Z " fill="rgb(0,135,203)"/></g></g></svg>